<svg width="124" height="21" viewBox="0 0 124 21" fill="none" xmlns="http://www.w3.org/2000/svg">
            <g clip-path="url(#clip0)">
            <path d="M34.0495 13.5336C34.2226 13.8684 34.4744 14.1583 34.7842 14.3795C35.1098 14.6053 35.476 14.7693 35.8635 14.8628C36.2881 14.9703 36.7252 15.0238 37.1638 15.0218C37.486 15.0192 37.8076 14.9937 38.1261 14.9455C38.4594 14.9003 38.7839 14.806 39.0883 14.6657C39.3791 14.5334 39.6349 14.3376 39.836 14.0933C40.0426 13.827 40.1483 13.4988 40.1351 13.1647C40.1419 12.9835 40.1101 12.8029 40.0419 12.6343C39.9736 12.4657 39.8703 12.3129 39.7385 12.1853C39.4397 11.9093 39.0885 11.6933 38.7047 11.5494C38.2309 11.3683 37.7442 11.2217 37.2483 11.1105C36.7065 10.9833 36.1582 10.8434 35.6034 10.6908C35.032 10.5526 34.4696 10.3805 33.9195 10.1756C33.3999 9.98529 32.9114 9.72176 32.4696 9.39339C32.0409 9.06983 31.6884 8.6599 31.4358 8.19139C31.1582 7.65159 31.022 7.05283 31.0392 6.44881C31.0207 5.75136 31.1936 5.0618 31.5399 4.45184C31.8644 3.89516 32.3079 3.41356 32.8402 3.03997C33.3979 2.65732 34.021 2.37518 34.6802 2.20684C35.3504 2.01751 36.0436 1.91698 36.7412 1.90793C37.5064 1.91591 38.268 2.01197 39.0103 2.19412C39.7088 2.35438 40.3704 2.64128 40.9608 3.03997C41.5277 3.42655 41.9933 3.93863 42.3197 4.53452C42.6722 5.21774 42.8443 5.97641 42.8203 6.74136H39.5694C39.5577 6.3565 39.4601 5.9788 39.2834 5.63476C39.1304 5.35509 38.9065 5.11858 38.6332 4.9479C38.3503 4.77355 38.0376 4.65074 37.71 4.5854C37.3426 4.50508 36.968 4.46035 36.5917 4.45184C36.3109 4.46087 36.0319 4.49925 35.7595 4.56632C35.4983 4.61902 35.2493 4.71818 35.0248 4.85887C34.8077 4.99375 34.6217 5.17135 34.4786 5.38037C34.3277 5.61852 34.253 5.89536 34.2641 6.17534C34.2598 6.42593 34.3274 6.67268 34.4591 6.88764C34.6242 7.11073 34.8492 7.28465 35.1093 7.39006C35.5588 7.58149 36.0243 7.73469 36.5007 7.84797L38.8218 8.43306C39.1078 8.48818 39.5023 8.58994 40.0051 8.73833C40.5402 8.89788 41.0485 9.1336 41.5134 9.43791C42.0309 9.77093 42.4733 10.2037 42.8138 10.7099C43.2003 11.3287 43.3904 12.0458 43.3599 12.7704C43.3674 13.4274 43.2299 14.0782 42.9568 14.6784C42.6808 15.2688 42.2665 15.7873 41.7475 16.192C41.1572 16.6404 40.4838 16.973 39.7645 17.1714C38.8729 17.4219 37.9483 17.5419 37.0208 17.5276C36.1959 17.5284 35.3743 17.4258 34.5762 17.2223C33.8339 17.0414 33.1327 16.7265 32.5086 16.2938C31.8906 15.8603 31.3869 15.2891 31.0392 14.6275C30.6661 13.8873 30.4895 13.0671 30.5256 12.2426H33.7765C33.7587 12.6882 33.8525 13.1314 34.0495 13.5336Z" fill="#272823"/>
            <path d="M50.3102 8.35039C49.8808 8.33623 49.457 8.44928 49.0944 8.67474C48.7629 8.89858 48.4892 9.19467 48.2947 9.53967C48.0864 9.88853 47.9391 10.269 47.8591 10.6653C47.7742 11.0671 47.7307 11.4762 47.729 11.8864C47.731 12.2861 47.7746 12.6846 47.8591 13.0757C47.9369 13.4618 48.0773 13.8333 48.2752 14.1759C48.4652 14.5025 48.7328 14.7796 49.0554 14.9836C49.4142 15.2002 49.8303 15.3086 50.2517 15.2953C50.5583 15.3144 50.8657 15.2712 51.1544 15.1683C51.4431 15.0654 51.7069 14.9051 51.9291 14.6975C52.3461 14.2483 52.6038 13.6796 52.6638 13.0757H55.5896C55.4779 14.3456 54.8645 15.5228 53.8796 16.3574C52.8502 17.1371 51.5721 17.5358 50.2712 17.483C49.4929 17.492 48.7202 17.3538 47.9956 17.076C47.3328 16.8224 46.7323 16.4344 46.2336 15.9376C45.7406 15.437 45.3559 14.8444 45.1023 14.195C44.826 13.4845 44.6892 12.7293 44.6992 11.9691C44.6925 11.1761 44.82 10.3874 45.0763 9.63506C45.3037 8.94952 45.6733 8.3173 46.1621 7.77801C46.6559 7.24956 47.2617 6.83285 47.9371 6.55693C48.6958 6.25282 49.5099 6.10349 50.3297 6.1181C50.969 6.11486 51.6058 6.19833 52.2217 6.36614C52.8058 6.52326 53.3564 6.78176 53.8471 7.12931C54.3498 7.48316 54.7626 7.94539 55.0535 8.48025C55.3443 9.01511 55.5055 9.60826 55.5245 10.2138H52.5598C52.5437 9.94461 52.472 9.68142 52.3488 9.44018C52.2256 9.19894 52.0537 8.9847 51.8433 8.81044C51.6329 8.63618 51.3886 8.50555 51.125 8.42647C50.8615 8.34739 50.5843 8.3215 50.3102 8.35039Z" fill="#272823"/>
            <path d="M60.1861 6.40431V8.414H60.2316C60.3761 8.07801 60.5711 7.76504 60.8102 7.48547C61.0492 7.20282 61.3296 6.95635 61.6424 6.75409C61.9526 6.5532 62.2895 6.39485 62.6437 6.28347C63.0032 6.17206 63.3783 6.11627 63.7555 6.11812C63.976 6.1224 64.1948 6.15665 64.4057 6.21987V8.98002C64.2626 8.95034 64.0914 8.92702 63.892 8.91006C63.6993 8.8999 63.5061 8.8999 63.3134 8.91006C62.8281 8.89703 62.346 8.99047 61.9025 9.18353C61.5341 9.35206 61.2146 9.60781 60.9728 9.92763C60.7336 10.243 60.5612 10.6019 60.4656 10.9833C60.3623 11.4299 60.3122 11.8866 60.3161 12.3443V17.2159H57.2993V6.40431H60.1861Z" fill="#272823"/>
            <path d="M65.4851 9.73047C65.5009 9.11552 65.685 8.51596 66.0182 7.99425C66.3252 7.54072 66.7345 7.16214 67.2145 6.88765C67.7203 6.60002 68.272 6.39792 68.8464 6.28983C69.448 6.17182 70.0599 6.11217 70.6734 6.11176C71.2389 6.1122 71.8037 6.15045 72.3639 6.22623C72.905 6.29573 73.4316 6.44811 73.9243 6.67778C74.3852 6.8965 74.7831 7.22442 75.0816 7.63174C75.4007 8.09655 75.5581 8.6497 75.5302 9.20897V14.831C75.5286 15.2987 75.5569 15.766 75.6147 16.2302C75.6421 16.5818 75.744 16.924 75.9138 17.235H72.819C72.7624 17.0663 72.7168 16.8942 72.6824 16.7199C72.6453 16.5435 72.6193 16.3651 72.6044 16.1856C72.1351 16.6486 71.5535 16.9877 70.914 17.1714C70.2628 17.3658 69.5858 17.4644 68.905 17.464C68.4064 17.467 67.9097 17.4028 67.4291 17.2732C66.9943 17.1583 66.5875 16.9594 66.2328 16.6881C65.8887 16.4197 65.6147 16.0753 65.4331 15.6832C65.2313 15.2282 65.1336 14.7354 65.147 14.2396C65.1284 13.716 65.2423 13.196 65.4786 12.7259C65.6812 12.3464 65.9732 12.0195 66.3303 11.772C66.6947 11.5279 67.0994 11.3471 67.5266 11.2377C67.9741 11.1206 68.4277 11.0272 68.8855 10.9579C69.3406 10.907 69.7849 10.8583 70.2183 10.8116C70.6149 10.7766 71.0082 10.7128 71.3951 10.6208C71.6905 10.5581 71.9681 10.4321 72.2078 10.252C72.3093 10.1666 72.3878 10.0582 72.4366 9.93621C72.4853 9.81425 72.5028 9.68247 72.4874 9.5524C72.4993 9.28871 72.4435 9.0263 72.3248 8.78922C72.2245 8.60801 72.0763 8.45647 71.8957 8.3504C71.696 8.23763 71.4747 8.16619 71.2456 8.14053C70.9936 8.10511 70.7394 8.0881 70.4849 8.08965C69.9854 8.0614 69.4901 8.19313 69.074 8.46487C68.8866 8.6223 68.7362 8.81744 68.6329 9.03695C68.5297 9.25647 68.4761 9.4952 68.4758 9.73683L65.4851 9.73047ZM72.4939 11.9246C72.3535 12.0428 72.1897 12.1316 72.0128 12.1853C71.8 12.2529 71.5828 12.306 71.3626 12.3443C71.1415 12.3867 70.9096 12.4207 70.6669 12.4461C70.4242 12.4715 70.1815 12.5055 69.9387 12.5479C69.7188 12.59 69.5016 12.6452 69.2886 12.7132C69.0811 12.7744 68.8856 12.869 68.7099 12.993C68.5448 13.1126 68.4093 13.2669 68.3133 13.4446C68.2067 13.6581 68.1553 13.894 68.1638 14.1314C68.1564 14.3627 68.2078 14.5921 68.3133 14.7992C68.4088 14.9743 68.5502 15.1213 68.7229 15.2253C68.9067 15.3335 69.1096 15.4068 69.3211 15.4416C69.5526 15.4839 69.7877 15.5052 70.0232 15.5052C70.5055 15.5318 70.9862 15.4308 71.4146 15.2126C71.7149 15.0446 71.9657 14.8036 72.1428 14.513C72.2928 14.2585 72.3901 13.9776 72.4289 13.6863C72.4596 13.4649 72.477 13.2419 72.4809 13.0185L72.4939 11.9246Z" fill="#272823"/>
            <path d="M80.7642 6.40429V7.78436H80.8097C81.1425 7.23435 81.6331 6.79206 82.2206 6.5124C82.8088 6.24496 83.4509 6.1102 84.0995 6.1181C84.8762 6.09895 85.646 6.26483 86.3426 6.60144C86.9524 6.90755 87.4853 7.34194 87.903 7.8734C88.3273 8.42698 88.6385 9.05533 88.8198 9.72409C89.0213 10.443 89.1219 11.1855 89.1188 11.9309C89.1216 12.6388 89.0209 13.3433 88.8198 14.0233C88.6331 14.6655 88.3243 15.2675 87.9095 15.7977C87.5043 16.3137 86.9869 16.7352 86.3946 17.0315C85.7343 17.3501 85.0047 17.5072 84.2686 17.4894C83.6145 17.4963 82.9674 17.3571 82.3766 17.0824C81.8058 16.8172 81.3168 16.4091 80.9592 15.8994H80.9137V20.9873H77.8774V6.40429H80.7642ZM84.7042 14.9773C85.0324 14.7886 85.3108 14.5272 85.5169 14.2141C85.7318 13.8776 85.8796 13.5042 85.9525 13.1139C86.0387 12.6951 86.0822 12.269 86.0825 11.8419C86.0835 11.4144 86.0377 10.988 85.946 10.5699C85.8616 10.1729 85.7052 9.79384 85.4844 9.45062C85.2738 9.12827 84.9915 8.85654 84.6587 8.65565C84.2864 8.44337 83.8606 8.3376 83.4299 8.35038C82.9928 8.33606 82.5603 8.44181 82.1816 8.65565C81.8524 8.85141 81.5742 9.11918 81.3688 9.4379C81.1554 9.77745 81.0077 10.1526 80.9332 10.5445C80.8478 10.9634 80.8042 11.3894 80.8032 11.8165C80.8022 12.244 80.848 12.6704 80.9397 13.0884C81.0202 13.4786 81.1722 13.8514 81.3883 14.1887C81.7545 14.6832 82.2903 15.0324 82.8979 15.1725C83.5054 15.3126 84.1443 15.2343 84.6977 14.9518L84.7042 14.9773Z" fill="#272823"/>
            <path d="M90.8091 9.73047C90.825 9.11552 91.0091 8.51596 91.3422 7.99425C91.6492 7.54072 92.0585 7.16214 92.5386 6.88765C93.0443 6.60002 93.596 6.39792 94.1705 6.28983C94.772 6.17182 95.3839 6.11217 95.9974 6.11176C96.5629 6.1122 97.1277 6.15045 97.6879 6.22623C98.229 6.29573 98.7556 6.44811 99.2483 6.67778C99.7093 6.8965 100.107 7.22442 100.406 7.63174C100.725 8.09655 100.882 8.6497 100.854 9.20897V14.831C100.853 15.2987 100.881 15.766 100.939 16.2302C100.966 16.5818 101.068 16.924 101.238 17.235H98.1755C98.119 17.0663 98.0734 16.8942 98.039 16.7199C98.0018 16.5435 97.9758 16.3651 97.9609 16.1856C97.4788 16.6551 96.8808 16.9947 96.225 17.1714C95.5739 17.3658 94.8968 17.4644 94.216 17.464C93.7174 17.467 93.2208 17.4028 92.7401 17.2732C92.3054 17.1583 91.8986 16.9594 91.5438 16.6881C91.1998 16.4197 90.9257 16.0753 90.7441 15.6832C90.5423 15.2282 90.4447 14.7354 90.458 14.2396C90.4394 13.716 90.5533 13.196 90.7896 12.7259C90.9923 12.3464 91.2842 12.0195 91.6413 11.772C92.0057 11.5279 92.4104 11.3471 92.8376 11.2377C93.2851 11.1206 93.7387 11.0272 94.1965 10.9579C94.6516 10.8901 95.1002 10.835 95.5423 10.7926C95.9389 10.7575 96.3322 10.6937 96.7191 10.6018C97.0145 10.539 97.2921 10.413 97.5318 10.2329C97.6333 10.1475 97.7119 10.0391 97.7606 9.91713C97.8093 9.79517 97.8268 9.66339 97.8114 9.53332C97.8234 9.26963 97.7675 9.00722 97.6489 8.77014C97.5486 8.58894 97.4004 8.43739 97.2198 8.33132C97.02 8.21855 96.7987 8.14712 96.5696 8.12145C96.3177 8.08603 96.0634 8.06902 95.8089 8.07057C95.3094 8.04232 94.8141 8.17405 94.398 8.44579C94.2106 8.60322 94.0602 8.79836 93.9569 9.01788C93.8537 9.23739 93.8001 9.47612 93.7999 9.71775L90.8091 9.73047ZM97.8179 11.9246C97.6775 12.0428 97.5137 12.1316 97.3368 12.1853C97.1241 12.2529 96.9068 12.306 96.6866 12.3443C96.4656 12.3867 96.2337 12.4207 95.9909 12.4461C95.7482 12.4715 95.5055 12.5055 95.2628 12.5479C95.0428 12.59 94.8257 12.6452 94.6126 12.7132C94.4052 12.7744 94.2096 12.869 94.0339 12.993C93.8688 13.1126 93.7333 13.2669 93.6373 13.4446C93.5307 13.6581 93.4794 13.894 93.4878 14.1314C93.4804 14.3627 93.5318 14.5921 93.6373 14.7992C93.7329 14.9743 93.8742 15.1213 94.0469 15.2253C94.2307 15.3335 94.4336 15.4068 94.6451 15.4416C94.8766 15.4839 95.1117 15.5052 95.3473 15.5052C95.8295 15.5318 96.3102 15.4308 96.7386 15.2126C97.0389 15.0446 97.2897 14.8036 97.4668 14.513C97.6169 14.2585 97.7141 13.9776 97.7529 13.6863C97.7837 13.4649 97.801 13.2419 97.8049 13.0185L97.8179 11.9246Z" fill="#272823"/>
            <path d="M107.278 20.434C106.539 20.8497 105.692 21.0464 104.84 21C104.528 21 104.218 21 103.91 21L102.981 20.93V18.4434L103.858 18.526C104.157 18.5467 104.457 18.5467 104.755 18.526C104.928 18.518 105.097 18.4727 105.25 18.3936C105.403 18.3144 105.536 18.2033 105.64 18.0681C105.828 17.8127 105.928 17.5053 105.926 17.1905C105.926 16.9618 105.882 16.7352 105.796 16.5227L101.947 6.4043H105.198L107.701 13.8071H107.746L110.158 6.4043H113.299L108.683 18.5515C108.437 19.312 107.944 19.9731 107.278 20.434Z" fill="#272823"/>
            <path d="M116.848 14.5257C116.977 14.7497 117.155 14.943 117.369 15.0917C117.591 15.2424 117.84 15.3523 118.103 15.4161C118.386 15.4855 118.677 15.5197 118.968 15.5178C119.187 15.516 119.404 15.4925 119.618 15.4479C119.845 15.4042 120.065 15.327 120.268 15.2189C120.459 15.1161 120.623 14.9727 120.749 14.7992C120.88 14.6119 120.948 14.3898 120.945 14.1632C120.945 13.718 120.641 13.3831 120.034 13.1584C119.209 12.8768 118.363 12.6536 117.505 12.4906C117.072 12.3931 116.638 12.2786 116.205 12.1472C115.806 12.0265 115.428 11.8509 115.08 11.6257C114.769 11.412 114.509 11.1341 114.319 10.8116C114.11 10.445 114.006 10.0294 114.02 9.60961C113.995 9.01067 114.139 8.41647 114.436 7.89247C114.705 7.45509 115.083 7.09179 115.535 6.83674C116.014 6.572 116.535 6.38917 117.076 6.29616C117.655 6.18994 118.243 6.13671 118.831 6.13717C119.416 6.13518 120 6.19057 120.574 6.30252C121.107 6.403 121.617 6.5946 122.082 6.86854C122.525 7.13537 122.9 7.49619 123.181 7.92427C123.495 8.42632 123.676 8.99672 123.708 9.58417H120.821C120.831 9.3515 120.776 9.12052 120.662 8.91642C120.547 8.71231 120.377 8.54291 120.171 8.42669C119.732 8.21536 119.248 8.11064 118.76 8.12142C118.576 8.11196 118.391 8.11196 118.207 8.12142C118.019 8.13847 117.835 8.18351 117.661 8.25497C117.5 8.32353 117.357 8.42808 117.245 8.56024C117.125 8.71268 117.065 8.90231 117.076 9.09447C117.074 9.21556 117.1 9.33549 117.152 9.44551C117.204 9.55553 117.28 9.65287 117.375 9.73044C117.606 9.91417 117.871 10.0524 118.155 10.1375C118.516 10.2514 118.883 10.3449 119.254 10.4173L120.515 10.6908C120.955 10.7871 121.389 10.906 121.816 11.0469C122.217 11.1759 122.596 11.3624 122.941 11.6002C123.266 11.8264 123.536 12.1195 123.734 12.4588C123.945 12.8501 124.048 13.2885 124.033 13.7307C124.061 14.3147 123.93 14.8956 123.652 15.4133C123.375 15.931 122.961 16.3667 122.453 16.6753C121.961 16.9839 121.414 17.1997 120.84 17.3113C120.232 17.43 119.614 17.4896 118.994 17.4894C118.363 17.4893 117.733 17.4254 117.115 17.2986C116.537 17.1831 115.984 16.9678 115.483 16.6626C115.005 16.3704 114.602 15.9743 114.306 15.5051C113.981 14.9562 113.808 14.3335 113.806 13.6989H116.692C116.669 13.9832 116.723 14.2683 116.848 14.5257Z" fill="#272823"/>
            <path d="M23.1066 1.90881L21.8843 11.0796C20.9843 10.1917 19.7887 9.64875 18.5145 9.54925C17.2403 9.44975 15.9718 9.80029 14.9392 10.5373C13.9065 11.2743 13.1781 12.3489 12.8861 13.5662C12.5941 14.7836 12.7579 16.0629 13.3476 17.1723L8.98499 18.2344C8.69282 18.3141 8.38427 18.3167 8.09076 18.2418C7.79724 18.167 7.52925 18.0174 7.31406 17.8083L0.467792 10.6853C0.275845 10.4871 0.136221 10.246 0.0610211 9.98308C-0.0141791 9.72014 -0.0226859 9.44322 0.036238 9.17633C0.0951619 8.90944 0.219738 8.66064 0.39917 8.45148C0.578601 8.24232 0.807472 8.07913 1.06595 7.97604L20.7595 0.12807C21.0382 0.0172796 21.3418 -0.0199036 21.6399 0.0202474C21.9379 0.0603983 22.22 0.176473 22.4577 0.356838C22.6954 0.537202 22.8805 0.775521 22.9944 1.04791C23.1083 1.32029 23.147 1.61718 23.1066 1.90881Z" fill="#FF7900"/>
            <ellipse cx="18.2049" cy="14.6275" rx="3.25084" ry="3.17989" fill="#049B41"/>
            </g>
            <defs>
            <clipPath id="clip0">
            <rect width="124" height="21" fill="white"/>
            </clipPath>
            </defs>
            </svg>